<svg xmlns="http://www.w3.org/2000/svg" width="155" height="61.458" viewBox="0 0 155 61.458">
  <g id="Grupo_2949" data-name="Grupo 2949" transform="translate(-665.561 -763.751)">
    <g id="Grupo_2945" data-name="Grupo 2945" transform="translate(732.923 784.16)">
      <path id="Trazado_4217" data-name="Trazado 4217" d="M838.381,823.65a.652.652,0,0,1-.252.52.851.851,0,0,1-.561.212.715.715,0,0,1-.4-.122.765.765,0,0,1-.284-.349l-1.073-2.438h-5.949l-1.073,2.438a.744.744,0,0,1-.292.349.759.759,0,0,1-.407.122.871.871,0,0,1-.577-.212.653.653,0,0,1-.252-.52.881.881,0,0,1,.081-.325l4.584-10.028a.857.857,0,0,1,.365-.406,1.019,1.019,0,0,1,1.057,0,.855.855,0,0,1,.365.406l4.584,10.028a.885.885,0,0,1,.082.325m-7.916-3.511h4.762l-2.389-5.38Z" transform="translate(-827.263 -812.743)" fill="#202847"/>
      <path id="Trazado_4218" data-name="Trazado 4218" d="M857.892,824.209a.714.714,0,0,1-.236-.585V813.58a.738.738,0,0,1,.236-.593.874.874,0,0,1,.593-.2.844.844,0,0,1,.585.2.752.752,0,0,1,.228.593v10.044a.727.727,0,0,1-.228.585.865.865,0,0,1-.585.2.9.9,0,0,1-.593-.2" transform="translate(-844.995 -812.766)" fill="#202847"/>
      <path id="Trazado_4219" data-name="Trazado 4219" d="M869.833,824.933a.584.584,0,0,1,.154.431.564.564,0,0,1-.251.5A1.176,1.176,0,0,1,869,826l-.439-.032a2.843,2.843,0,0,1-1.966-.8,2.984,2.984,0,0,1-.651-2.089v-3.819h-.975q-.715,0-.715-.633a.594.594,0,0,1,.187-.463.753.753,0,0,1,.528-.172h.975v-1.673a.773.773,0,0,1,.22-.585.817.817,0,0,1,.593-.211.85.85,0,0,1,.6.211.758.758,0,0,1,.227.585v1.673h1.61a.754.754,0,0,1,.528.172.675.675,0,0,1,0,.934.778.778,0,0,1-.528.163h-1.61v3.934a1.661,1.661,0,0,0,.317,1.121,1.374,1.374,0,0,0,.967.407l.455.033a.816.816,0,0,1,.512.186" transform="translate(-848.842 -814.36)" fill="#202847"/>
      <path id="Trazado_4220" data-name="Trazado 4220" d="M886.816,827.283a.7.7,0,0,1,.146.455.934.934,0,0,1-.585.8,5.131,5.131,0,0,1-1.243.5,5.066,5.066,0,0,1-1.292.179,4.005,4.005,0,0,1-2.975-1.1,4.071,4.071,0,0,1-1.089-3,4.708,4.708,0,0,1,.48-2.162,3.528,3.528,0,0,1,1.349-1.462,3.765,3.765,0,0,1,1.975-.52A3.228,3.228,0,0,1,886.1,822a3.963,3.963,0,0,1,.926,2.763c0,.434-.195.65-.586.65H881.42q.163,2.52,2.422,2.52a2.987,2.987,0,0,0,1.04-.163,7.446,7.446,0,0,0,.926-.422c.033-.022.122-.068.268-.138a.871.871,0,0,1,.365-.106.462.462,0,0,1,.375.179m-4.714-4.5a2.8,2.8,0,0,0-.683,1.69h4.194a2.721,2.721,0,0,0-.561-1.7,1.8,1.8,0,0,0-1.439-.593,1.984,1.984,0,0,0-1.511.6" transform="translate(-857.901 -817.547)" fill="#202847"/>
      <path id="Trazado_4221" data-name="Trazado 4221" d="M906.451,821.717a.726.726,0,0,1-.179.536.951.951,0,0,1-.617.211l-.488.049a2.11,2.11,0,0,0-1.52.715,2.316,2.316,0,0,0-.495,1.5v3.722a.728.728,0,0,1-.228.585.866.866,0,0,1-.585.2.9.9,0,0,1-.593-.2.715.715,0,0,1-.236-.585v-6.615a.718.718,0,0,1,.236-.576.875.875,0,0,1,.593-.2.771.771,0,0,1,.545.2.728.728,0,0,1,.22.56v.78a2.382,2.382,0,0,1,.942-1.089,3.166,3.166,0,0,1,1.4-.439l.227-.016q.781-.048.781.667" transform="translate(-870.58 -817.588)" fill="#202847"/>
      <path id="Trazado_4222" data-name="Trazado 4222" d="M922.91,824.179V828.4a.748.748,0,0,1-.219.577.865.865,0,0,1-.61.2.818.818,0,0,1-.593-.212.753.753,0,0,1-.219-.569V824.26a2.266,2.266,0,0,0-.4-1.479,1.54,1.54,0,0,0-1.244-.472,2.123,2.123,0,0,0-1.593.618,2.277,2.277,0,0,0-.6,1.658v3.82a.753.753,0,0,1-.219.569.818.818,0,0,1-.593.212.847.847,0,0,1-.6-.212.736.736,0,0,1-.228-.569v-6.615a.734.734,0,0,1,.236-.561.841.841,0,0,1,.593-.219.77.77,0,0,1,.569.211.748.748,0,0,1,.212.553v.666a2.629,2.629,0,0,1,1.089-1.088,3.276,3.276,0,0,1,1.576-.375q2.845,0,2.844,3.2" transform="translate(-878.912 -817.547)" fill="#202847"/>
      <path id="Trazado_4223" data-name="Trazado 4223" d="M943.558,821.774a3.362,3.362,0,0,1,.772,2.422v4.21a.767.767,0,0,1-.212.578.812.812,0,0,1-.585.2.729.729,0,0,1-.78-.781v-.6a2.291,2.291,0,0,1-.918,1.048,2.709,2.709,0,0,1-1.423.366,3.216,3.216,0,0,1-1.43-.317,2.451,2.451,0,0,1-1.016-.886,2.289,2.289,0,0,1-.366-1.267,1.957,1.957,0,0,1,.447-1.358,2.673,2.673,0,0,1,1.479-.707,14.892,14.892,0,0,1,2.836-.211h.374V824a1.917,1.917,0,0,0-.374-1.317,1.569,1.569,0,0,0-1.2-.407,3.834,3.834,0,0,0-1.072.147,8.13,8.13,0,0,0-1.106.422,1.6,1.6,0,0,1-.617.244.5.5,0,0,1-.4-.179.67.67,0,0,1-.155-.455.7.7,0,0,1,.138-.431,1.447,1.447,0,0,1,.447-.365,5.567,5.567,0,0,1,1.333-.5,6.208,6.208,0,0,1,1.479-.186,3.136,3.136,0,0,1,2.349.8m-1.39,5.615a2.2,2.2,0,0,0,.569-1.568V825.4h-.293a12.732,12.732,0,0,0-1.95.113,1.911,1.911,0,0,0-.975.382.991.991,0,0,0-.293.772,1.224,1.224,0,0,0,.422.959,1.537,1.537,0,0,0,1.057.374,1.909,1.909,0,0,0,1.463-.61" transform="translate(-891.636 -817.547)" fill="#202847"/>
      <path id="Trazado_4224" data-name="Trazado 4224" d="M961.872,824.933a.584.584,0,0,1,.154.431.563.563,0,0,1-.252.5,1.173,1.173,0,0,1-.739.138l-.439-.032a2.842,2.842,0,0,1-1.966-.8,2.984,2.984,0,0,1-.651-2.089v-3.819H957q-.715,0-.716-.633a.594.594,0,0,1,.187-.463.757.757,0,0,1,.529-.172h.975v-1.673a.773.773,0,0,1,.219-.585.818.818,0,0,1,.593-.211.848.848,0,0,1,.6.211.757.757,0,0,1,.227.585v1.673h1.61a.754.754,0,0,1,.528.172.675.675,0,0,1,0,.934.778.778,0,0,1-.528.163h-1.61v3.934a1.662,1.662,0,0,0,.317,1.121,1.374,1.374,0,0,0,.967.407l.455.033a.816.816,0,0,1,.512.186" transform="translate(-902.539 -814.36)" fill="#202847"/>
      <path id="Trazado_4225" data-name="Trazado 4225" d="M972.718,814.353a.894.894,0,0,1-.277-.683.868.868,0,0,1,.277-.674,1.221,1.221,0,0,1,1.487,0,.859.859,0,0,1,.284.674.9.9,0,0,1-.276.683,1.2,1.2,0,0,1-1.5,0m.154,9.833a.716.716,0,0,1-.235-.585V817a.74.74,0,0,1,.235-.593.873.873,0,0,1,.594-.2.841.841,0,0,1,.585.2.754.754,0,0,1,.228.593v6.6a.728.728,0,0,1-.228.585.867.867,0,0,1-.585.2.9.9,0,0,1-.594-.2" transform="translate(-911.963 -812.743)" fill="#202847"/>
      <path id="Trazado_4226" data-name="Trazado 4226" d="M986.978,821.208a.753.753,0,0,1,.4-.114.794.794,0,0,1,.545.211.659.659,0,0,1,.236.5.758.758,0,0,1-.065.309l-3.1,6.583a.84.84,0,0,1-.35.4.957.957,0,0,1-.991,0,.833.833,0,0,1-.349-.4l-3.1-6.583a.674.674,0,0,1-.066-.309.632.632,0,0,1,.261-.5.9.9,0,0,1,.585-.211.739.739,0,0,1,.7.455l2.52,5.591,2.5-5.575a.709.709,0,0,1,.285-.358" transform="translate(-916.447 -817.616)" fill="#202847"/>
      <path id="Trazado_4227" data-name="Trazado 4227" d="M1007.622,821.774a3.358,3.358,0,0,1,.772,2.422v4.21a.767.767,0,0,1-.212.578.814.814,0,0,1-.585.2.729.729,0,0,1-.781-.781v-.6a2.288,2.288,0,0,1-.918,1.048,2.708,2.708,0,0,1-1.422.366,3.214,3.214,0,0,1-1.43-.317,2.444,2.444,0,0,1-1.016-.886,2.292,2.292,0,0,1-.366-1.267,1.955,1.955,0,0,1,.446-1.358,2.672,2.672,0,0,1,1.479-.707,14.9,14.9,0,0,1,2.836-.211h.375V824a1.911,1.911,0,0,0-.375-1.317,1.566,1.566,0,0,0-1.2-.407,3.84,3.84,0,0,0-1.073.147,8.134,8.134,0,0,0-1.1.422,1.6,1.6,0,0,1-.618.244.5.5,0,0,1-.4-.179.671.671,0,0,1-.154-.455.709.709,0,0,1,.137-.431,1.438,1.438,0,0,1,.448-.365,5.544,5.544,0,0,1,1.333-.5,6.2,6.2,0,0,1,1.479-.186,3.135,3.135,0,0,1,2.348.8m-1.39,5.615a2.2,2.2,0,0,0,.569-1.568V825.4h-.292a12.752,12.752,0,0,0-1.951.113,1.911,1.911,0,0,0-.975.382.994.994,0,0,0-.293.772,1.224,1.224,0,0,0,.423.959,1.535,1.535,0,0,0,1.057.374,1.909,1.909,0,0,0,1.463-.61" transform="translate(-929.013 -817.547)" fill="#202847"/>
      <path id="Trazado_4228" data-name="Trazado 4228" d="M1022.568,828.535a1.243,1.243,0,0,1-.415-.374.813.813,0,0,1-.122-.439.676.676,0,0,1,.146-.44.463.463,0,0,1,.374-.178,1.613,1.613,0,0,1,.667.26,6.707,6.707,0,0,0,.951.422,3.554,3.554,0,0,0,1.162.163,2.285,2.285,0,0,0,1.219-.277.872.872,0,0,0,.438-.78.761.761,0,0,0-.17-.52,1.436,1.436,0,0,0-.593-.349,9.919,9.919,0,0,0-1.251-.334,4.811,4.811,0,0,1-2.056-.838,1.781,1.781,0,0,1-.626-1.437,2.1,2.1,0,0,1,.406-1.26,2.631,2.631,0,0,1,1.122-.87,4.072,4.072,0,0,1,1.624-.308,4.73,4.73,0,0,1,1.269.17,3.593,3.593,0,0,1,1.089.5,1.007,1.007,0,0,1,.537.828.649.649,0,0,1-.155.439.471.471,0,0,1-.365.179.725.725,0,0,1-.293-.065,4.191,4.191,0,0,1-.389-.212,5.548,5.548,0,0,0-.821-.407,2.678,2.678,0,0,0-.95-.145,1.866,1.866,0,0,0-1.1.293.924.924,0,0,0-.415.8.8.8,0,0,0,.383.707,4.654,4.654,0,0,0,1.438.48,7.891,7.891,0,0,1,1.707.521,2.013,2.013,0,0,1,.885.723,2.04,2.04,0,0,1,.268,1.1,2,2,0,0,1-.886,1.7,3.947,3.947,0,0,1-2.365.642,4.916,4.916,0,0,1-2.714-.682" transform="translate(-940.894 -817.547)" fill="#202847"/>
    </g>
    <g id="Grupo_2946" data-name="Grupo 2946" transform="translate(735.361 800.792)">
      <path id="Trazado_4229" data-name="Trazado 4229" d="M833.343,864.1a.833.833,0,0,1-.227-.618v-9.931a.838.838,0,0,1,.227-.609.8.8,0,0,1,.6-.236.785.785,0,0,1,.845.845v9.931a.85.85,0,0,1-.22.618.829.829,0,0,1-.625.228.813.813,0,0,1-.6-.228" transform="translate(-833.116 -852.69)" fill="#0090df"/>
      <path id="Trazado_4230" data-name="Trazado 4230" d="M850.184,864.1v4.225a.744.744,0,0,1-.22.577.857.857,0,0,1-.609.2.824.824,0,0,1-.594-.212.755.755,0,0,1-.219-.569v-4.144a2.266,2.266,0,0,0-.4-1.479,1.538,1.538,0,0,0-1.243-.471,2.12,2.12,0,0,0-1.593.617,2.274,2.274,0,0,0-.6,1.658v3.819a.754.754,0,0,1-.22.569.82.82,0,0,1-.593.212.85.85,0,0,1-.6-.212.738.738,0,0,1-.227-.569v-6.615a.733.733,0,0,1,.235-.561.836.836,0,0,1,.593-.219.77.77,0,0,1,.569.211.748.748,0,0,1,.211.553v.667a2.642,2.642,0,0,1,1.089-1.089,3.29,3.29,0,0,1,1.576-.373q2.845,0,2.845,3.2" transform="translate(-838.92 -857.471)" fill="#0090df"/>
      <path id="Trazado_4231" data-name="Trazado 4231" d="M868.273,864.857a.584.584,0,0,1,.155.43.561.561,0,0,1-.253.5,1.18,1.18,0,0,1-.739.138l-.439-.033a2.842,2.842,0,0,1-1.967-.805,2.984,2.984,0,0,1-.65-2.089v-3.818h-.976q-.715,0-.714-.634a.6.6,0,0,1,.186-.463.754.754,0,0,1,.529-.171h.976v-1.673a.778.778,0,0,1,.219-.586.82.82,0,0,1,.594-.211.848.848,0,0,1,.6.211.763.763,0,0,1,.228.586v1.673h1.608a.756.756,0,0,1,.529.171.681.681,0,0,1,0,.935.786.786,0,0,1-.529.162h-1.608v3.933a1.659,1.659,0,0,0,.317,1.122,1.369,1.369,0,0,0,.966.407l.456.032a.821.821,0,0,1,.511.186" transform="translate(-850.371 -854.284)" fill="#0090df"/>
      <path id="Trazado_4232" data-name="Trazado 4232" d="M885.255,867.208a.7.7,0,0,1,.146.455.933.933,0,0,1-.585.8,5.161,5.161,0,0,1-1.243.5,5.063,5.063,0,0,1-1.292.179,4,4,0,0,1-2.975-1.1,4.071,4.071,0,0,1-1.089-3,4.7,4.7,0,0,1,.48-2.162,3.524,3.524,0,0,1,1.349-1.463,3.768,3.768,0,0,1,1.974-.52,3.228,3.228,0,0,1,2.52,1.023,3.963,3.963,0,0,1,.926,2.762q0,.651-.585.651h-5.023q.162,2.52,2.422,2.52a3,3,0,0,0,1.04-.163,7.5,7.5,0,0,0,.927-.423c.033-.022.123-.068.268-.138a.886.886,0,0,1,.366-.105.461.461,0,0,1,.373.179m-4.714-4.5a2.805,2.805,0,0,0-.682,1.69h4.193a2.714,2.714,0,0,0-.561-1.7,1.8,1.8,0,0,0-1.439-.594,1.985,1.985,0,0,0-1.512.6" transform="translate(-859.429 -857.471)" fill="#0090df"/>
      <path id="Trazado_4233" data-name="Trazado 4233" d="M900.185,864.134a.716.716,0,0,1-.237-.585V853.5a.74.74,0,0,1,.237-.593.876.876,0,0,1,.593-.2.845.845,0,0,1,.584.2.753.753,0,0,1,.228.593v10.045a.728.728,0,0,1-.228.585.865.865,0,0,1-.584.2.9.9,0,0,1-.593-.2" transform="translate(-872.108 -852.691)" fill="#0090df"/>
      <path id="Trazado_4234" data-name="Trazado 4234" d="M909.2,854.276a.891.891,0,0,1-.276-.682.869.869,0,0,1,.276-.675,1.223,1.223,0,0,1,1.488,0,.86.86,0,0,1,.284.675.892.892,0,0,1-.277.682,1.2,1.2,0,0,1-1.5,0m.155,9.834a.716.716,0,0,1-.236-.585v-6.6a.739.739,0,0,1,.236-.593.874.874,0,0,1,.593-.2.847.847,0,0,1,.585.2.754.754,0,0,1,.228.593v6.6a.73.73,0,0,1-.228.585.869.869,0,0,1-.585.2.9.9,0,0,1-.593-.2" transform="translate(-877.344 -852.667)" fill="#0090df"/>
      <path id="Trazado_4235" data-name="Trazado 4235" d="M925.354,861.153a.78.78,0,0,1,.22.577v6.664a3.628,3.628,0,0,1-.967,2.746,3.969,3.969,0,0,1-2.852.926,5.852,5.852,0,0,1-2.926-.665.969.969,0,0,1-.6-.813.675.675,0,0,1,.154-.455.485.485,0,0,1,.382-.178,1.662,1.662,0,0,1,.666.243,8.307,8.307,0,0,0,1.089.431,4.141,4.141,0,0,0,1.2.154,1.989,1.989,0,0,0,2.242-2.259v-1.252a2.485,2.485,0,0,1-1.04,1.113,3.225,3.225,0,0,1-1.625.4,3.537,3.537,0,0,1-1.854-.487,3.281,3.281,0,0,1-1.259-1.382,4.553,4.553,0,0,1-.447-2.064,4.5,4.5,0,0,1,.456-2.065,3.405,3.405,0,0,1,1.259-1.389,3.446,3.446,0,0,1,1.845-.5,3.2,3.2,0,0,1,1.6.39,2.548,2.548,0,0,1,1.048,1.105v-.682a.754.754,0,0,1,.22-.57.82.82,0,0,1,.593-.211.8.8,0,0,1,.593.219m-2.007,5.632a2.872,2.872,0,0,0,.6-1.934,2.9,2.9,0,0,0-.593-1.927,2.053,2.053,0,0,0-1.666-.706,2.114,2.114,0,0,0-1.682.7,2.848,2.848,0,0,0-.61,1.935,2.814,2.814,0,0,0,.619,1.934,2.119,2.119,0,0,0,1.673.7,2.072,2.072,0,0,0,1.658-.7" transform="translate(-882.487 -857.471)" fill="#0090df"/>
      <path id="Trazado_4236" data-name="Trazado 4236" d="M947.993,867.208a.7.7,0,0,1,.146.455.934.934,0,0,1-.585.8,5.174,5.174,0,0,1-1.244.5,5.064,5.064,0,0,1-1.291.179,4,4,0,0,1-2.975-1.1,4.069,4.069,0,0,1-1.089-3,4.708,4.708,0,0,1,.479-2.162,3.525,3.525,0,0,1,1.349-1.463,3.768,3.768,0,0,1,1.974-.52,3.227,3.227,0,0,1,2.52,1.023,3.964,3.964,0,0,1,.927,2.762q0,.651-.585.651H942.6q.164,2.52,2.422,2.52a3.005,3.005,0,0,0,1.04-.163,7.542,7.542,0,0,0,.927-.423,3.015,3.015,0,0,1,.268-.138.884.884,0,0,1,.366-.105.464.464,0,0,1,.374.179m-4.714-4.5a2.807,2.807,0,0,0-.683,1.69h4.194a2.717,2.717,0,0,0-.561-1.7,1.8,1.8,0,0,0-1.438-.594,1.984,1.984,0,0,0-1.511.6" transform="translate(-896.032 -857.471)" fill="#0090df"/>
      <path id="Trazado_4237" data-name="Trazado 4237" d="M969.806,864.1v4.225a.745.745,0,0,1-.219.577.857.857,0,0,1-.61.2.823.823,0,0,1-.594-.212.754.754,0,0,1-.219-.569v-4.144a2.266,2.266,0,0,0-.4-1.479,1.538,1.538,0,0,0-1.243-.471,2.12,2.12,0,0,0-1.593.617,2.271,2.271,0,0,0-.6,1.658v3.819a.751.751,0,0,1-.22.569.822.822,0,0,1-.593.212.849.849,0,0,1-.6-.212.737.737,0,0,1-.228-.569v-6.615a.733.733,0,0,1,.236-.561.833.833,0,0,1,.593-.219.772.772,0,0,1,.569.211.75.75,0,0,1,.211.553v.667a2.642,2.642,0,0,1,1.089-1.089,3.292,3.292,0,0,1,1.577-.373q2.845,0,2.845,3.2" transform="translate(-908.71 -857.471)" fill="#0090df"/>
      <path id="Trazado_4238" data-name="Trazado 4238" d="M987.895,864.857a.583.583,0,0,1,.155.43.563.563,0,0,1-.252.5,1.183,1.183,0,0,1-.74.138l-.439-.033a2.842,2.842,0,0,1-1.966-.805,2.984,2.984,0,0,1-.65-2.089v-3.818h-.976q-.715,0-.716-.634a.6.6,0,0,1,.188-.463.752.752,0,0,1,.528-.171H984v-1.673a.777.777,0,0,1,.219-.586.817.817,0,0,1,.593-.211.848.848,0,0,1,.6.211.76.76,0,0,1,.228.586v1.673h1.609a.752.752,0,0,1,.528.171.677.677,0,0,1,0,.935.782.782,0,0,1-.528.162h-1.609v3.933a1.657,1.657,0,0,0,.318,1.122,1.369,1.369,0,0,0,.966.407l.455.032a.822.822,0,0,1,.512.186" transform="translate(-920.159 -854.284)" fill="#0090df"/>
      <path id="Trazado_4239" data-name="Trazado 4239" d="M1004.878,867.208a.691.691,0,0,1,.147.455.933.933,0,0,1-.585.8,5.154,5.154,0,0,1-1.243.5,5.071,5.071,0,0,1-1.292.179,4,4,0,0,1-2.974-1.1,4.069,4.069,0,0,1-1.089-3,4.707,4.707,0,0,1,.479-2.162,3.515,3.515,0,0,1,1.349-1.463,3.773,3.773,0,0,1,1.975-.52,3.228,3.228,0,0,1,2.52,1.023,3.963,3.963,0,0,1,.926,2.762q0,.651-.586.651h-5.022q.163,2.52,2.422,2.52a3.006,3.006,0,0,0,1.04-.163,7.481,7.481,0,0,0,.927-.423c.033-.022.122-.068.269-.138a.883.883,0,0,1,.365-.105.46.46,0,0,1,.374.179m-4.712-4.5a2.8,2.8,0,0,0-.684,1.69h4.194a2.721,2.721,0,0,0-.561-1.7,1.8,1.8,0,0,0-1.439-.594,1.982,1.982,0,0,0-1.51.6" transform="translate(-929.22 -857.471)" fill="#0090df"/>
      <path id="Trazado_4240" data-name="Trazado 4240" d="M1018.939,868.459a1.229,1.229,0,0,1-.414-.373.806.806,0,0,1-.122-.44.669.669,0,0,1,.146-.439.461.461,0,0,1,.374-.179,1.608,1.608,0,0,1,.667.26,6.792,6.792,0,0,0,.951.423,3.544,3.544,0,0,0,1.161.162,2.278,2.278,0,0,0,1.219-.276.873.873,0,0,0,.439-.78.76.76,0,0,0-.17-.52,1.45,1.45,0,0,0-.593-.349,10.091,10.091,0,0,0-1.251-.333,4.82,4.82,0,0,1-2.056-.837,1.783,1.783,0,0,1-.626-1.438,2.092,2.092,0,0,1,.406-1.259,2.619,2.619,0,0,1,1.122-.869,4.049,4.049,0,0,1,1.625-.309,4.764,4.764,0,0,1,1.268.17,3.585,3.585,0,0,1,1.089.5,1.007,1.007,0,0,1,.536.829.646.646,0,0,1-.154.439.471.471,0,0,1-.365.179.715.715,0,0,1-.293-.065,3.664,3.664,0,0,1-.39-.211,5.482,5.482,0,0,0-.822-.407,2.688,2.688,0,0,0-.95-.146,1.861,1.861,0,0,0-1.1.293.926.926,0,0,0-.415.8.8.8,0,0,0,.382.707,4.671,4.671,0,0,0,1.439.479,7.972,7.972,0,0,1,1.707.52,1.79,1.79,0,0,1,1.154,1.82,2,2,0,0,1-.886,1.7,3.947,3.947,0,0,1-2.365.641,4.915,4.915,0,0,1-2.714-.682" transform="translate(-941.216 -857.471)" fill="#0090df"/>
    </g>
    <g id="Grupo_2948" data-name="Grupo 2948" transform="translate(665.561 763.751)">
      <path id="Trazado_4241" data-name="Trazado 4241" d="M668.876,847.66h0a6.66,6.66,0,0,1-2.431-9.071l18.2-31.525a6.641,6.641,0,0,1,11.5,6.641l-18.2,31.525a6.661,6.661,0,0,1-9.071,2.431" transform="translate(-665.56 -787.086)" fill="#0090df"/>
      <path id="Trazado_4242" data-name="Trazado 4242" d="M722.982,770.023a6.272,6.272,0,1,1-6.271-6.272,6.271,6.271,0,0,1,6.271,6.272" transform="translate(-691.743 -763.751)" fill="#0090df"/>
      <path id="Trazado_4243" data-name="Trazado 4243" d="M692.093,820.977l8.033-13.914a6.641,6.641,0,0,1,11.5,6.641l-5.76,9.971h0c-6.024-11.2-13.765-2.693-13.765-2.693Z" transform="translate(-681.04 -787.086)" fill="#202847"/>
      <g id="Grupo_2947" data-name="Grupo 2947" transform="translate(24.835 19.85)">
        <path id="Trazado_4244" data-name="Trazado 4244" d="M749.131,843.053l-18.2-31.526c-.026-.045-.057-.084-.083-.127a6.656,6.656,0,0,1,.083,6.769l-5.753,9.958,12.452,21.566a6.641,6.641,0,1,0,11.5-6.64Z" transform="translate(-725.177 -811.4)" fill="#202847"/>
      </g>
      <path id="Trazado_4245" data-name="Trazado 4245" d="M721.489,806.837c-.09-.143-.185-.284-.287-.42-.04-.055-.084-.1-.126-.158-.089-.113-.178-.224-.277-.332-.07-.077-.144-.148-.217-.221s-.15-.153-.229-.226c-.1-.1-.214-.183-.324-.271-.055-.044-.108-.089-.164-.131-.134-.1-.274-.193-.415-.282-.037-.024-.073-.05-.112-.072-.161-.1-.327-.189-.5-.271l-.057-.029c-.184-.088-.371-.17-.562-.24l-.013-.006c-.193-.073-.39-.134-.589-.188l-.023-.006c-.185-.049-.375-.09-.563-.123l-.094-.016c-.16-.026-.32-.043-.482-.057-.071-.006-.142-.012-.213-.016-.118-.006-.237-.008-.355-.008s-.237,0-.356.008c-.071,0-.142.01-.213.016-.161.014-.321.032-.481.057l-.094.016c-.19.033-.377.073-.563.123l-.024.006c-.2.054-.4.116-.589.188l-.014.006c-.19.072-.378.152-.562.24l-.057.029q-.253.124-.495.271c-.039.022-.076.048-.114.072-.14.089-.28.181-.414.282-.057.042-.11.088-.165.132-.11.087-.219.174-.323.27-.081.073-.156.151-.232.227s-.146.144-.215.219c-.1.109-.19.221-.28.335-.04.051-.083.1-.123.153-.1.138-.2.281-.289.426-.021.034-.045.067-.066.1a6.657,6.657,0,0,0-.083,6.771l5.749,9.958,5.753-9.958a6.658,6.658,0,0,0-.083-6.769C721.535,806.907,721.511,806.874,721.489,806.837Z" transform="translate(-691.052 -787.095)" fill="#101221"/>
    </g>
  </g>
</svg>
